HIERARCHY
ROOT Hips
{
	OFFSET 1.324476 86.935013 4.250773
	CHANNELS 6 Xposition Yposition Zposition Zrotation Yrotation Xrotation 
	JOINT Spine
	{
		OFFSET 0.000000 8.814246 -2.080107
		CHANNELS 3 Zrotation Yrotation Xrotation
		JOINT Spine1
		{
			OFFSET 0.000000 8.844141 -0.000000
			CHANNELS 3 Zrotation Yrotation Xrotation
			JOINT Spine2
			{
				OFFSET 0.000000 11.682268 0.000000
				CHANNELS 3 Zrotation Yrotation Xrotation
				JOINT Spine3
				{
					OFFSET 0.000000 11.746700 0.000000
					CHANNELS 3 Zrotation Yrotation Xrotation
					JOINT Neck
					{
						OFFSET -0.000000 17.658264 -0.000000
						CHANNELS 3 Zrotation Yrotation Xrotation
						JOINT Neck1
						{
							OFFSET 0.000000 5.101515 -0.000000
							CHANNELS 3 Zrotation Yrotation Xrotation
							JOINT Head
							{
								OFFSET 0.000000 5.101515 0.000000
								CHANNELS 3 Zrotation Yrotation Xrotation
								JOINT HeadEnd
								{
									OFFSET -0.000000 11.655085 0.000000
									CHANNELS 3 Zrotation Yrotation Xrotation
									End Site
									{
										OFFSET 0.000000 0.000000 0.000000
									}
								}
							}
						}
					}
					JOINT RightShoulder
					{
						OFFSET -2.625389 11.175210 -0.000000
						CHANNELS 3 Zrotation Yrotation Xrotation
						JOINT RightArm
						{
							OFFSET -0.000000 10.434715 -0.000000
							CHANNELS 3 Zrotation Yrotation Xrotation
							JOINT RightForeArm
							{
								OFFSET -0.000000 29.628420 -0.000000
								CHANNELS 3 Zrotation Yrotation Xrotation
								JOINT RightHand
								{
									OFFSET -0.000000 22.857611 -0.000000
									CHANNELS 3 Zrotation Yrotation Xrotation
									JOINT RightHandThumb1
									{
										OFFSET -2.867323 3.959563 2.944291
										CHANNELS 3 Zrotation Yrotation Xrotation
										JOINT RightHandThumb2
										{
											OFFSET -0.000000 3.350399 0.000000
											CHANNELS 3 Zrotation Yrotation Xrotation
											JOINT RightHandThumb3
											{
												OFFSET 0.000000 3.756509 -0.000000
												CHANNELS 3 Zrotation Yrotation Xrotation
												JOINT RightHandThumb4
												{
													OFFSET 0.000000 3.147345 -0.000000
													CHANNELS 3 Zrotation Yrotation Xrotation
													End Site
													{
														OFFSET 0.000000 0.000000 0.000000
													}
												}
											}
										}
									}
									JOINT RightHandIndex1
									{
										OFFSET -0.086752 10.030893 2.345280
										CHANNELS 3 Zrotation Yrotation Xrotation
										JOINT RightHandIndex2
										{
											OFFSET -0.000000 4.061090 -0.000000
											CHANNELS 3 Zrotation Yrotation Xrotation
											JOINT RightHandIndex3
											{
												OFFSET 0.000000 3.248873 0.000000
												CHANNELS 3 Zrotation Yrotation Xrotation
												JOINT RightHandIndex4
												{
													OFFSET 0.000000 2.639709 -0.000000
													CHANNELS 3 Zrotation Yrotation Xrotation
													End Site
													{
														OFFSET 0.000000 0.000000 0.000000
													}
												}
											}
										}
									}
									JOINT RightHandMiddle1
									{
										OFFSET 0.104102 9.502952 0.006768
										CHANNELS 3 Zrotation Yrotation Xrotation
										JOINT RightHandMiddle2
										{
											OFFSET 0.000000 4.568727 0.000000
											CHANNELS 3 Zrotation Yrotation Xrotation
											JOINT RightHandMiddle3
											{
												OFFSET 0.000000 3.654981 -0.000000
												CHANNELS 3 Zrotation Yrotation Xrotation
												JOINT RightHandMiddle4
												{
													OFFSET -0.000000 2.741236 -0.000000
													CHANNELS 3 Zrotation Yrotation Xrotation
													End Site
													{
														OFFSET 0.000000 0.000000 0.000000
													}
												}
											}
										}
									}
									JOINT RightHandRing1
									{
										OFFSET 0.086752 8.921708 -2.267442
										CHANNELS 3 Zrotation Yrotation Xrotation
										JOINT RightHandRing2
										{
											OFFSET -0.000000 4.061090 0.000000
											CHANNELS 3 Zrotation Yrotation Xrotation
											JOINT RightHandRing3
											{
												OFFSET -0.000000 3.654981 -0.000000
												CHANNELS 3 Zrotation Yrotation Xrotation
												JOINT RightHandRing4
												{
													OFFSET -0.000000 2.741236 -0.000000
													CHANNELS 3 Zrotation Yrotation Xrotation
													End Site
													{
														OFFSET 0.000000 0.000000 0.000000
													}
												}
											}
										}
									}
									JOINT RightHandPinky1
									{
										OFFSET -0.173504 7.976997 -4.467199
										CHANNELS 3 Zrotation Yrotation Xrotation
										JOINT RightHandPinky2
										{
											OFFSET -0.000000 3.350399 -0.000000
											CHANNELS 3 Zrotation Yrotation Xrotation
											JOINT RightHandPinky3
											{
												OFFSET -0.000000 2.842763 -0.000000
												CHANNELS 3 Zrotation Yrotation Xrotation
												JOINT RightHandPinky4
												{
													OFFSET 0.000000 2.639709 0.000000
													CHANNELS 3 Zrotation Yrotation Xrotation
													End Site
													{
														OFFSET 0.000000 0.000000 0.000000
													}
												}
											}
										}
									}
									JOINT RightForeArmEnd
									{
										OFFSET 0.000000 0.000000 0.000000
										CHANNELS 3 Zrotation Yrotation Xrotation
										End Site
										{
											OFFSET 0.000000 0.000000 0.000000
										}
									}
								}
								JOINT RightArmEnd
								{
									OFFSET 0.000000 0.000000 0.000000
									CHANNELS 3 Zrotation Yrotation Xrotation
									End Site
									{
										OFFSET 0.000000 0.000000 0.000000
									}
								}
							}
						}
					}
					JOINT LeftShoulder
					{
						OFFSET 2.625389 11.175210 -0.000000
						CHANNELS 3 Zrotation Yrotation Xrotation
						JOINT LeftArm
						{
							OFFSET 0.000000 10.813635 0.000000
							CHANNELS 3 Zrotation Yrotation Xrotation
							JOINT LeftForeArm
							{
								OFFSET 0.000000 28.724781 -0.000000
								CHANNELS 3 Zrotation Yrotation Xrotation
								JOINT LeftHand
								{
									OFFSET 0.644384 25.716167 -0.328871
									CHANNELS 3 Zrotation Yrotation Xrotation
									JOINT LeftHandThumb1
									{
										OFFSET 2.867323 3.959563 2.944291
										CHANNELS 3 Zrotation Yrotation Xrotation
										JOINT LeftHandThumb2
										{
											OFFSET -0.000000 3.350399 -0.000000
											CHANNELS 3 Zrotation Yrotation Xrotation
											JOINT LeftHandThumb3
											{
												OFFSET -0.000000 3.756509 0.000000
												CHANNELS 3 Zrotation Yrotation Xrotation
												JOINT LeftHandThumb4
												{
													OFFSET 0.000000 3.100000 -0.000000
													CHANNELS 3 Zrotation Yrotation Xrotation
													End Site
													{
														OFFSET 0.000000 0.000000 0.000000
													}
												}
											}
										}
									}
									JOINT LeftHandIndex1
									{
										OFFSET 0.086752 10.030893 2.345280
										CHANNELS 3 Zrotation Yrotation Xrotation
										JOINT LeftHandIndex2
										{
											OFFSET 0.000000 4.061090 -0.000000
											CHANNELS 3 Zrotation Yrotation Xrotation
											JOINT LeftHandIndex3
											{
												OFFSET 0.000000 3.248873 -0.000000
												CHANNELS 3 Zrotation Yrotation Xrotation
												JOINT LeftHandIndex4
												{
													OFFSET -0.000000 2.639709 0.000000
													CHANNELS 3 Zrotation Yrotation Xrotation
													End Site
													{
														OFFSET 0.000000 0.000000 0.000000
													}
												}
											}
										}
									}
									JOINT LeftHandMiddle1
									{
										OFFSET -0.104102 9.502952 0.006768
										CHANNELS 3 Zrotation Yrotation Xrotation
										JOINT LeftHandMiddle2
										{
											OFFSET 0.000000 4.568727 -0.000000
											CHANNELS 3 Zrotation Yrotation Xrotation
											JOINT LeftHandMiddle3
											{
												OFFSET 0.000000 3.654981 -0.000000
												CHANNELS 3 Zrotation Yrotation Xrotation
												JOINT LeftHandMiddle4
												{
													OFFSET -0.000000 2.741236 0.000000
													CHANNELS 3 Zrotation Yrotation Xrotation
													End Site
													{
														OFFSET 0.000000 0.000000 0.000000
													}
												}
											}
										}
									}
									JOINT LeftHandRing1
									{
										OFFSET -0.086752 8.921708 -2.267442
										CHANNELS 3 Zrotation Yrotation Xrotation
										JOINT LeftHandRing2
										{
											OFFSET 0.000000 4.061090 -0.000000
											CHANNELS 3 Zrotation Yrotation Xrotation
											JOINT LeftHandRing3
											{
												OFFSET 0.000000 3.654981 -0.000000
												CHANNELS 3 Zrotation Yrotation Xrotation
												JOINT LeftHandRing4
												{
													OFFSET 0.000000 2.741236 0.000000
													CHANNELS 3 Zrotation Yrotation Xrotation
													End Site
													{
														OFFSET 0.000000 0.000000 0.000000
													}
												}
											}
										}
									}
									JOINT LeftHandPinky1
									{
										OFFSET 0.173504 7.976997 -4.467199
										CHANNELS 3 Zrotation Yrotation Xrotation
										JOINT LeftHandPinky2
										{
											OFFSET 0.000000 3.350399 -0.000000
											CHANNELS 3 Zrotation Yrotation Xrotation
											JOINT LeftHandPinky3
											{
												OFFSET -0.000000 2.842763 0.000000
												CHANNELS 3 Zrotation Yrotation Xrotation
												JOINT LeftHandPinky4
												{
													OFFSET 0.000000 2.639709 -0.000000
													CHANNELS 3 Zrotation Yrotation Xrotation
													End Site
													{
														OFFSET 0.000000 0.000000 0.000000
													}
												}
											}
										}
									}
									JOINT LeftForeArmEnd
									{
										OFFSET 0.000000 0.000000 0.000000
										CHANNELS 3 Zrotation Yrotation Xrotation
										End Site
										{
											OFFSET 0.000000 0.000000 0.000000
										}
									}
								}
								JOINT LeftArmEnd
								{
									OFFSET 0.000000 0.000000 0.000000
									CHANNELS 3 Zrotation Yrotation Xrotation
									End Site
									{
										OFFSET 0.000000 0.000000 0.000000
									}
								}
							}
						}
					}
				}
			}
		}
	}
	JOINT RightUpLeg
	{
		OFFSET -11.289943 -0.000000 0.000000
		CHANNELS 3 Zrotation Yrotation Xrotation
		JOINT RightLeg
		{
			OFFSET -0.000000 -38.200325 -0.000000
			CHANNELS 3 Zrotation Yrotation Xrotation
			JOINT RightFoot
			{
				OFFSET -0.000000 -39.900856 0.000000
				CHANNELS 3 Zrotation Yrotation Xrotation
				JOINT RightToeBase
				{
					OFFSET 0.000000 0.000000 15.261641
					CHANNELS 3 Zrotation Yrotation Xrotation
					JOINT RightToeBaseEnd
					{
						OFFSET 0.000000 -0.000000 7.370709
						CHANNELS 3 Zrotation Yrotation Xrotation
						End Site
						{
							OFFSET 0.000000 0.000000 0.000000
						}
					}
				}
				JOINT RightLegEnd
				{
					OFFSET 0.000000 0.000000 0.000000
					CHANNELS 3 Zrotation Yrotation Xrotation
					End Site
					{
						OFFSET 0.000000 0.000000 0.000000
					}
				}
			}
			JOINT RightUpLegEnd
			{
				OFFSET 0.000000 0.000000 0.000000
				CHANNELS 3 Zrotation Yrotation Xrotation
				End Site
				{
					OFFSET 0.000000 0.000000 0.000000
				}
			}
		}
	}
	JOINT LeftUpLeg
	{
		OFFSET 11.315661 0.000000 -0.000000
		CHANNELS 3 Zrotation Yrotation Xrotation
		JOINT LeftLeg
		{
			OFFSET -0.000000 -38.200325 0.000000
			CHANNELS 3 Zrotation Yrotation Xrotation
			JOINT LeftFoot
			{
				OFFSET -0.000000 -39.900856 0.000000
				CHANNELS 3 Zrotation Yrotation Xrotation
				JOINT LeftToeBase
				{
					OFFSET -0.000000 0.000000 15.261641
					CHANNELS 3 Zrotation Yrotation Xrotation
					JOINT LeftToeBaseEnd
					{
						OFFSET -0.000000 0.000000 7.539996
						CHANNELS 3 Zrotation Yrotation Xrotation
						End Site
						{
							OFFSET 0.000000 0.000000 0.000000
						}
					}
				}
				JOINT LeftLegEnd
				{
					OFFSET 0.000000 0.000000 0.000000
					CHANNELS 3 Zrotation Yrotation Xrotation
					End Site
					{
						OFFSET 0.000000 0.000000 0.000000
					}
				}
			}
			JOINT LeftUpLegEnd
			{
				OFFSET 0.000000 0.000000 0.000000
				CHANNELS 3 Zrotation Yrotation Xrotation
				End Site
				{
					OFFSET 0.000000 0.000000 0.000000
				}
			}
		}
	}
}
MOTION
Frames: 4
Frame Time: 0.016667
0.407491 85.544250 6.678555 -0.845779 -4.884770 -14.718179 -0.371542 0.219340 9.185216 5.953606 -1.536021 -3.125272 -4.066733 0.763376 18.291637 0.793660 -0.790056 -1.530304 6.473903 1.916782 12.407582 -3.226896 1.106701 -6.654297 -0.284831 3.467239 -25.966833 0.000000 0.000000 0.000000 98.820503 -1.027381 4.244945 57.172508 -43.988235 6.960618 1.468889 16.543423 31.790640 5.271663 17.309574 -10.798629 9.620432 -1.754395 40.218639 -0.000006 0.000048 -23.458836 0.000005 0.000072 -16.213375 0.000015 0.000002 -0.000050 11.431562 0.206510 -8.924628 7.863766 -0.064506 0.060522 7.812736 -0.033627 -0.010141 -0.000007 0.000027 -0.000038 11.971421 0.065209 -11.107567 8.266313 -0.038577 0.019644 8.229127 -0.008692 0.017674 0.000002 -0.000029 -0.000009 13.381113 -0.128106 -12.550498 9.531244 0.075105 -0.014736 9.421269 0.015401 -0.018527 -0.000019 0.000018 0.000013 14.592119 -0.387532 -15.492589 10.192122 0.174535 -0.006297 10.224856 0.034163 -0.029194 -0.000201 -0.000010 -0.000006 0.000000 0.000000 0.000000 0.000000 0.000000 0.000000 -95.194344 0.846940 4.385098 -56.870281 45.271679 1.555600 -1.832168 -8.131077 49.897354 -4.139973 -19.540419 -16.337139 -8.954416 1.676968 40.486427 0.000008 0.000056 -22.020996 -0.000058 -0.000031 -15.081209 -0.000355 -0.000002 -0.000891 -13.967684 0.225081 -13.503299 -8.816528 -0.040084 0.110255 -8.817276 -0.002035 0.090322 -0.000002 0.000881 -0.000016 -14.564022 0.101875 -14.806813 -9.432145 -0.030422 0.032521 -9.258815 -0.000323 0.031478 -0.001746 -0.000071 -0.000230 -15.946733 -0.059085 -13.920787 -10.628638 0.070487 -0.060711 -10.633799 0.005220 -0.057584 0.000538 0.000011 0.000005 -16.414202 -0.308699 -13.652271 -11.255107 0.114219 -0.170438 -11.141744 -0.000074 -0.160231 -0.001020 0.000007 -0.000057 0.000000 0.000000 0.000000 0.000000 0.000000 0.000000 -3.495256 -3.229604 18.833473 -0.204350 -0.949553 9.956677 -0.792276 -10.238659 14.792713 -0.572143 -0.770666 -27.801212 0.000000 0.000000 0.000000 0.000000 0.000000 0.000000 0.000000 0.000000 0.000000 8.786570 6.990744 17.514584 0.230555 1.079838 13.695122 -1.505653 6.439172 11.713921 0.403756 0.256275 -27.402849 0.000000 0.000000 0.000000 0.000000 0.000000 0.000000 0.000000 0.000000 0.000000 
0.405404 85.543808 6.669182 -0.848240 -4.878310 -14.721005 -0.368668 0.219173 9.188952 5.944648 -1.534106 -3.144760 -4.055526 0.759170 18.316406 0.790102 -0.791268 -1.534371 6.490371 1.907294 12.397703 -3.225138 1.098574 -6.662451 -0.282846 3.467465 -25.968275 0.000000 0.000000 0.000000 98.820595 -1.027042 4.245523 57.173111 -44.007702 6.981422 1.466752 16.536007 31.805359 5.269688 17.281912 -10.805755 9.617639 -1.754108 40.219963 -0.000006 0.000048 -23.453201 0.000005 0.000072 -16.210171 0.000015 0.000002 -0.000050 11.420805 0.206480 -8.928177 7.868885 -0.064673 0.059957 7.817392 -0.033714 -0.010621 -0.000007 0.000027 -0.000038 11.960675 0.065195 -11.110287 8.272342 -0.038584 0.019549 8.234799 -0.008738 0.017534 0.000002 -0.000029 -0.000009 13.373149 -0.128191 -12.552815 9.540272 0.075128 -0.014182 9.429915 0.015392 -0.018140 -0.000019 0.000008 0.000013 14.580616 -0.387931 -15.495306 10.198849 0.174570 -0.004575 10.231719 0.034156 -0.027747 -0.000205 -0.000010 -0.000006 0.000000 0.000000 0.000000 0.000000 0.000000 0.000000 -95.193596 0.846866 4.388745 -56.875309 45.292599 1.545835 -1.828677 -8.130389 49.920017 -4.114803 -19.563725 -16.340696 -8.954503 1.676699 40.486565 0.000008 0.000056 -22.021294 -0.000058 -0.000031 -15.082177 -0.000342 -0.000002 -0.000878 -13.974400 0.225041 -13.512951 -8.820477 -0.040355 0.109972 -8.820376 -0.002255 0.090408 -0.000002 0.000887 -0.000016 -14.569656 0.101986 -14.814179 -9.435938 -0.030479 0.032422 -9.263714 -0.000376 0.031402 -0.001748 -0.000071 -0.000229 -15.951015 -0.059155 -13.925514 -10.633880 0.070637 -0.060544 -10.639323 0.005325 -0.057434 0.000545 0.000011 0.000005 -16.419731 -0.309188 -13.652528 -11.263022 0.114715 -0.169618 -11.150529 0.000285 -0.159924 -0.001018 0.000007 -0.000057 0.000000 0.000000 0.000000 0.000000 0.000000 0.000000 -3.492538 -3.222486 18.838089 -0.204272 -0.949648 9.942221 -0.792760 -10.239851 14.798845 -0.572944 -0.770821 -27.803148 0.000000 0.000000 0.000000 0.000000 0.000000 0.000000 0.000000 0.000000 0.000000 8.789908 6.990114 17.507721 0.230713 1.080631 13.705902 -1.500764 6.431490 11.713323 0.403378 0.257452 -27.407925 0.000000 0.000000 0.000000 0.000000 0.000000 0.000000 0.000000 0.000000 0.000000 
0.403060 85.543282 6.659894 -0.850376 -4.871665 -14.723592 -0.366382 0.219236 9.192657 5.935409 -1.532092 -3.164540 -4.043820 0.755288 18.342606 0.786709 -0.792091 -1.539646 6.505540 1.899026 12.386583 -3.223669 1.090775 -6.670864 -0.280933 3.467769 -25.969440 0.000000 0.000000 0.000000 98.819504 -1.026788 4.245838 57.175579 -44.027039 6.998531 1.464057 16.527834 31.824724 5.267919 17.251593 -10.814342 9.614036 -1.753725 40.221642 -0.000006 0.000048 -23.445787 0.000005 0.000072 -16.205664 0.000015 0.000002 -0.000050 11.404886 0.206482 -8.931684 7.872491 -0.064902 0.059730 7.820697 -0.033863 -0.010783 -0.000007 0.000027 -0.000038 11.945315 0.065199 -11.113058 8.277216 -0.038619 0.019575 8.239247 -0.008808 0.017507 0.000002 -0.000029 -0.000009 13.361372 -0.128270 -12.554726 9.548572 0.075171 -0.013779 9.438020 0.015402 -0.017874 -0.000019 -0.000002 0.000013 14.566146 -0.388372 -15.496779 10.205580 0.174601 -0.003177 10.238610 0.034172 -0.026575 -0.000209 -0.000010 -0.000006 0.000000 0.000000 0.000000 0.000000 0.000000 0.000000 -95.191887 0.846605 4.391859 -56.878880 45.315022 1.535819 -1.825092 -8.129214 49.940510 -4.089056 -19.589399 -16.344599 -8.953854 1.676421 40.486958 0.000008 0.000056 -22.019623 -0.000058 -0.000031 -15.081778 -0.000328 -0.000002 -0.000863 -13.978969 0.224995 -13.520886 -8.822889 -0.040629 0.109567 -8.822058 -0.002479 0.090378 -0.000002 0.000892 -0.000016 -14.573652 0.102100 -14.819658 -9.438608 -0.030535 0.032291 -9.267486 -0.000432 0.031297 -0.001749 -0.000071 -0.000227 -15.954691 -0.059256 -13.927355 -10.638712 0.070776 -0.060328 -10.644417 0.005422 -0.057240 0.000552 0.000011 0.000005 -16.425446 -0.309789 -13.649550 -11.270514 0.115150 -0.168755 -11.159016 0.000601 -0.159566 -0.001016 0.000007 -0.000057 0.000000 0.000000 0.000000 0.000000 0.000000 0.000000 -3.490524 -3.216998 18.844147 -0.204194 -0.949845 9.927172 -0.792757 -10.241518 14.804125 -0.573833 -0.770915 -27.804926 0.000000 0.000000 0.000000 0.000000 0.000000 0.000000 0.000000 0.000000 0.000000 8.792606 6.990142 17.502563 0.230791 1.081277 13.714311 -1.494813 6.423872 11.713414 0.402991 0.258857 -27.412748 0.000000 0.000000 0.000000 0.000000 0.000000 0.000000 0.000000 0.000000 0.000000 
0.400427 85.542648 6.650769 -0.852108 -4.865197 -14.726235 -0.364665 0.219529 9.196387 5.926002 -1.529980 -3.184488 -4.031874 0.752169 18.370222 0.783329 -0.792409 -1.545673 6.519586 1.891586 12.374576 -3.222468 1.083220 -6.679247 -0.278903 3.468183 -25.970438 0.000000 0.000000 0.000000 98.817238 -1.026730 4.246049 57.179928 -44.044437 7.012207 1.460832 16.519056 31.847616 5.266824 17.220198 -10.823812 9.609719 -1.753257 40.223629 -0.000006 0.000048 -23.436861 0.000005 0.000072 -16.200018 0.000015 0.000002 -0.000050 11.384372 0.206528 -8.934620 7.874608 -0.065199 0.059937 7.822701 -0.034086 -0.010549 -0.000007 0.000027 -0.000038 11.925988 0.065226 -11.115436 8.280916 -0.038683 0.019747 8.242438 -0.008903 0.017616 0.000002 -0.000029 -0.000009 13.346629 -0.128341 -12.555918 9.556085 0.075235 -0.013568 9.445562 0.015431 -0.017756 -0.000019 -0.000013 0.000013 14.549956 -0.388847 -15.496861 10.212429 0.174630 -0.002182 10.245601 0.034213 -0.025746 -0.000213 -0.000010 -0.000005 0.000000 0.000000 0.000000 0.000000 0.000000 0.000000 -95.189560 0.846326 4.394212 -56.880901 45.337749 1.525695 -1.821593 -8.127537 49.959080 -4.063458 -19.618900 -16.348211 -8.952437 1.676141 40.487640 0.000008 0.000056 -22.015888 -0.000058 -0.000031 -15.079920 -0.000314 -0.000002 -0.000843 -13.981024 0.224958 -13.527495 -8.823537 -0.040912 0.108964 -8.822143 -0.002712 0.090152 -0.000002 0.000899 -0.000016 -14.575585 0.102216 -14.823685 -9.439880 -0.030591 0.032096 -9.269797 -0.000493 0.031138 -0.001750 -0.000071 -0.000226 -15.957590 -0.059387 -13.926941 -10.642776 0.070908 -0.060033 -10.648661 0.005513 -0.056985 0.000560 0.000011 0.000005 -16.431290 -0.310482 -13.644228 -11.277166 0.115534 -0.167784 -11.166756 0.000884 -0.159090 -0.001015 0.000007 -0.000056 0.000000 0.000000 0.000000 0.000000 0.000000 0.000000 -3.489298 -3.213103 18.851561 -0.204118 -0.950137 9.911922 -0.792346 -10.243320 14.808686 -0.574773 -0.770907 -27.806509 0.000000 0.000000 0.000000 0.000000 0.000000 0.000000 0.000000 0.000000 0.000000 8.794575 6.990778 17.499477 0.230784 1.081738 13.720073 -1.488163 6.416647 11.714292 0.402615 0.260471 -27.417112 0.000000 0.000000 0.000000 0.000000 0.000000 0.000000 0.000000 0.000000 0.000000 
